<?xml version="1.0" encoding="UTF-8"?>
<svg version="1.1" xmlns="http://www.w3.org/2000/svg" color="#ec8273" width="512" height="512">
<path d="M0 0 C-2.51313056 29.73161242 -23.57742024 65.80276598 -43 88 C-43.69351562 88.825 -44.38703125 89.65 -45.1015625 90.5 C-59.21624327 106.85906464 -78.1860634 118.07702928 -100 120 C-112.32906358 120.73858751 -124.2120327 119.92932243 -136 116 C-135.67 146.03 -135.34 176.06 -135 207 C-123.60833776 198.86658926 -123.60833776 198.86658926 -112.25 190.6875 C-111.13093262 189.87974121 -111.13093262 189.87974121 -109.98925781 189.05566406 C-106.0995059 186.24703198 -102.21644465 183.42976761 -98.34375 180.59765625 C-65.42365317 156.56490598 -65.42365317 156.56490598 -42 158 C-31.37201908 159.81399046 -31.37201908 159.81399046 -27 162 C-27.00888245 161.27718338 -27.01776489 160.55436676 -27.0269165 159.80964661 C-27.10762766 152.94134937 -27.16824823 146.07312455 -27.20724869 139.20447254 C-27.22797466 135.67459924 -27.2560106 132.14512325 -27.30175781 128.61547852 C-27.35421564 124.54179441 -27.37306869 120.4685165 -27.390625 116.39453125 C-27.42159271 114.52653618 -27.42159271 114.52653618 -27.45318604 112.62080383 C-27.45692545 97.76505454 -22.8511145 85.14215054 -12.6875 74.1875 C-1.77604425 64.00672209 12.16929675 59.33346393 26.8828125 59.66015625 C40.20473833 60.419878 52.68127582 67.20682797 61.8125 76.6875 C72.71874168 89.58378935 75.46492681 104.10497079 75.38818359 120.57421875 C75.39225958 121.99492799 75.39760717 123.41563405 75.40411377 124.83633423 C75.4176713 128.65870212 75.41253715 132.48082432 75.40297651 136.30319595 C75.39531937 140.32542781 75.40244218 144.34764026 75.40713501 148.36987305 C75.41257508 155.12129447 75.4054471 161.87261706 75.39111328 168.62402344 C75.37479012 176.40168142 75.38007987 184.17910337 75.3965925 191.95675564 C75.41025745 198.66458101 75.41210267 205.37233582 75.40427649 212.08017063 C75.39962737 216.07329228 75.39889825 220.06630341 75.40888596 224.05941772 C75.41762675 227.81559535 75.41140578 231.57147212 75.39420319 235.32761765 C75.38842001 237.34337718 75.39719274 239.35916251 75.40658569 241.37490845 C75.29267245 257.90575394 70.59542103 271.97163305 59 284 C51.88856957 290.16389093 44.06623777 295.40109891 36.29272461 300.68554688 C31.1516002 304.18329206 26.09386869 307.78389057 21.0625 311.4375 C15.23720106 315.66721968 9.38973584 319.86043523 3.5 324 C-2.36497608 328.12377942 -8.19409089 332.29348046 -14 336.5 C-21.94957933 342.25398939 -29.92104467 347.97383879 -37.97265625 353.58447266 C-39.30891454 354.51747188 -40.64232912 355.45455915 -41.97265625 356.39599609 C-58.47622642 368.05268442 -74.76868502 374.6273223 -95.3125 374.4375 C-96.49239502 374.42847656 -97.67229004 374.41945313 -98.88793945 374.41015625 C-123.09387175 373.93171905 -143.18452841 363.49099903 -159.90625 346.19921875 C-160.5971875 345.47347656 -161.288125 344.74773437 -162 344 C-162.99671595 342.9967267 -163.99518081 341.99515747 -165 341 C-165.43828125 341.60585938 -165.8765625 342.21171875 -166.328125 342.8359375 C-179.78946888 360.62023327 -198.25719698 370.2087459 -220 374 C-250.34755776 375.80506845 -270.51125591 369.79640829 -294.68115234 351.72607422 C-298.44622945 348.92347418 -302.25465805 346.18155602 -306.0625 343.4375 C-307.17963379 342.62998291 -307.17963379 342.62998291 -308.31933594 341.80615234 C-314.05128835 337.66723929 -319.82242676 333.58602687 -325.60571289 329.51928711 C-330.76590345 325.88539208 -335.88930875 322.20312056 -341 318.5 C-346.82971824 314.27726773 -352.67903797 310.08505888 -358.5625 305.9375 C-359.25335693 305.44999268 -359.94421387 304.96248535 -360.65600586 304.46020508 C-364.28306298 301.90388465 -367.91825441 299.35988405 -371.5625 296.828125 C-387.40526814 285.79765946 -400.59899955 275.34375494 -404.55030441 255.1936655 C-404.99669076 252.02350172 -405.13141315 249.02306889 -405.14044189 245.82322693 C-405.14615204 244.60529953 -405.15186218 243.38737213 -405.15774536 242.13253784 C-405.1589905 240.79595958 -405.16011564 239.45938119 -405.16113281 238.12280273 C-405.1657661 236.7046038 -405.17079144 235.28640611 -405.17617798 233.86820984 C-405.18925815 230.02484008 -405.1957388 226.18148776 -405.20018864 222.33809924 C-405.20312753 219.93151859 -405.20723394 217.52494262 -405.21169281 215.11836433 C-405.22535858 207.57330901 -405.23502873 200.02826447 -405.2388947 192.48319763 C-405.24336796 183.80279135 -405.26088559 175.12254312 -405.2898953 166.44218487 C-405.31159188 159.71409999 -405.32160328 152.98605932 -405.32293582 146.25793988 C-405.32397851 142.24846592 -405.32977057 138.23914071 -405.34775543 134.2297039 C-405.3643739 130.45147452 -405.36632577 126.67350348 -405.35761642 122.89525032 C-405.35649294 120.86886827 -405.37010488 118.84249426 -405.3843689 116.81616211 C-405.31354655 101.07688859 -401.54833131 87.39478946 -390.71875 75.5859375 C-378.82031773 64.60692954 -365.7094001 60.48333187 -349.77734375 60.75390625 C-335.19564062 61.70390345 -322.77016074 68.17841467 -313 79 C-303.90586262 91.2028476 -301.52207687 102.20047126 -301.70703125 117.19921875 C-301.71127609 118.51541702 -301.71552094 119.8316153 -301.71989441 121.18769836 C-301.7312241 124.64832378 -301.76058492 128.10855764 -301.79400635 131.56903076 C-301.82496716 135.11562812 -301.83845469 138.66229017 -301.85351562 142.20898438 C-301.88546929 149.13948144 -301.93651719 156.0697218 -302 163 C-301.45947998 162.79141357 -300.91895996 162.58282715 -300.36206055 162.36791992 C-299.64832275 162.09568604 -298.93458496 161.82345215 -298.19921875 161.54296875 C-297.49369873 161.27250732 -296.78817871 161.0020459 -296.0612793 160.72338867 C-283.65184785 156.36840284 -268.09031084 158.61128659 -256.3125 163.875 C-248.86954972 167.89106687 -242.1624233 173.22739415 -235.37890625 178.24609375 C-231.60718579 181.02688601 -227.80277484 183.7619189 -224 186.5 C-222.50502776 187.57917698 -221.01023656 188.6586048 -219.515625 189.73828125 C-218.77376953 190.27404785 -218.03191406 190.80981445 -217.26757812 191.36181641 C-214.96438316 193.02573094 -212.66181092 194.69050407 -210.359375 196.35546875 C-209.59568604 196.90750977 -208.83199707 197.45955078 -208.04516602 198.02832031 C-206.52456018 199.12756904 -205.00421176 200.22717394 -203.48413086 201.32714844 C-200.04962362 203.80974292 -196.60942279 206.28260442 -193.14453125 208.72265625 C-185.84663287 213.86669158 -178.85352935 219.27200962 -172 225 C-170.70255859 226.02480469 -170.70255859 226.02480469 -169.37890625 227.0703125 C-167.45253613 228.63291815 -165.70517795 230.20507585 -164 232 C-163.50371094 231.49210938 -163.00742187 230.98421875 -162.49609375 230.4609375 C-161.81675781 229.77257812 -161.13742187 229.08421875 -160.4375 228.375 C-159.77621094 227.70210937 -159.11492187 227.02921875 -158.43359375 226.3359375 C-156 224 -156 224 -154.26002789 222.90952015 C-151.08954773 220.7706333 -149.27570999 219.14138903 -148.35926247 215.34746361 C-148.12499473 211.94573053 -148.11493846 208.60546426 -148.17700195 205.19604492 C-148.17265137 203.90574371 -148.16830078 202.6154425 -148.16381836 201.28604126 C-148.15458851 198.48481773 -148.16722973 195.68485808 -148.19695473 192.88377953 C-148.24375584 188.43834166 -148.24010651 183.99379205 -148.2297821 179.548172 C-148.21796775 171.69789118 -148.24881832 163.84820979 -148.28894043 155.99804688 C-148.34867178 144.22372909 -148.37308416 132.44939029 -148.36069459 120.67493135 C-148.35761825 116.27320425 -148.37626693 111.87225828 -148.41116375 107.47067839 C-148.61610883 78.44441467 -144.31672698 56.18180672 -123.875 34.3125 C-99.42421057 10.71069631 -60.41446182 4.44886561 -28 1.25 C-26.06858154 1.05821167 -26.06858154 1.05821167 -24.09814453 0.86254883 C-16.04254305 0.12431784 -8.08769642 -0.15343438 0 0 Z M-369.24609375 91.1171875 C-374.81629263 97.09677738 -378.11108357 103.68442225 -378.15390015 111.8361969 C-378.16250061 113.05433578 -378.17110107 114.27247467 -378.17996216 115.52752686 C-378.18439733 116.87976032 -378.1886957 118.23199423 -378.19287109 119.58422852 C-378.20077403 121.00685323 -378.2090431 122.42947594 -378.21765137 123.85209656 C-378.24385835 128.52768035 -378.25918177 133.20327302 -378.2734375 137.87890625 C-378.2787985 139.49054406 -378.28417601 141.10218181 -378.28956985 142.7138195 C-378.31120029 149.4213321 -378.32993416 156.12884231 -378.34119225 162.83638096 C-378.35741183 172.435879 -378.39053895 182.03497102 -378.44759309 191.63431603 C-378.48637165 198.39031551 -378.5058345 205.14620679 -378.51111281 211.9023146 C-378.51475665 215.93365794 -378.52667322 219.9645681 -378.55921555 223.99579048 C-378.58943468 227.79379028 -378.59555945 231.59109799 -378.58383179 235.38919258 C-378.58361217 236.77665801 -378.59182378 238.16415683 -378.60948563 239.55150986 C-378.7219969 248.90514287 -377.78537693 256.66503629 -371.33870506 263.85208988 C-365.77746472 269.18301593 -358.93043377 273.37228458 -352.62109375 277.765625 C-348.10358312 280.91502967 -343.64211629 284.13751347 -339.1875 287.375 C-332.83623327 291.98191447 -326.43682158 296.51346708 -320 301 C-312.81391114 306.00878016 -305.68624328 311.08992585 -298.59570312 316.23291016 C-292.02354262 320.99583127 -285.40518151 325.69035847 -278.7578125 330.34765625 C-276.56003652 331.88958278 -274.39424454 333.45217157 -272.2421875 335.05859375 C-258.49972888 345.24071243 -241.92274317 351.67980941 -224.63378906 349.73364258 C-205.86537616 346.89313166 -190.30940262 340.27009788 -178.6171875 324.859375 C-167.187063 307.39785639 -165.99210517 287.83915693 -170.1015625 267.875 C-174.6732945 248.1569211 -188.56642785 237.24943662 -204.37109375 226.23828125 C-208.92828461 223.06083445 -213.43845171 219.82158347 -217.9375 216.5625 C-219.05584229 215.75304932 -219.05584229 215.75304932 -220.19677734 214.92724609 C-221.70934446 213.83214099 -223.22171417 212.73676316 -224.73388672 211.64111328 C-226.98932818 210.0077285 -229.24628393 208.37646263 -231.50390625 206.74609375 C-232.24664795 206.20968262 -232.98938965 205.67327148 -233.75463867 205.12060547 C-235.24522227 204.04476618 -236.73626677 202.96956518 -238.2277832 201.89501953 C-242.11568398 199.0922626 -245.99167529 196.27483526 -249.8515625 193.43359375 C-250.65078125 192.84835937 -251.45 192.263125 -252.2734375 191.66015625 C-253.79004628 190.54915215 -255.30333467 189.43359425 -256.8125 188.3125 C-264.87627546 182.42204693 -272.68196167 177.82671136 -283 179 C-291.68596775 180.89605196 -297.64274672 184.91997854 -303 192 C-306.70823091 198.30399255 -308.123785 204.75158673 -307 212 C-301.93330436 229.70758426 -284.60884969 236.85344436 -270 246 C-264.33001593 249.5499595 -258.66908505 253.11247224 -253.03222656 256.71484375 C-251.23118298 257.85380259 -249.4098967 258.9606116 -247.5859375 260.0625 C-245.16717752 261.58870348 -243.00589398 262.96401761 -241 265 C-240.3125 268.6875 -240.3125 268.6875 -241 272 C-241.165 272.804375 -241.33 273.60875 -241.5 274.4375 C-241.665 274.953125 -241.83 275.46875 -242 276 C-248.53873928 275.6157947 -252.3132484 274.03904197 -257.625 270.3125 C-259.11623901 269.30718537 -260.60847816 268.30335316 -262.1015625 267.30078125 C-262.89079102 266.76533691 -263.68001953 266.22989258 -264.49316406 265.67822266 C-268.9410496 262.70054782 -273.47541313 259.85916218 -278 257 C-284.68454105 252.75648845 -291.35566999 248.49371227 -298 244.1875 C-298.67877197 243.74817139 -299.35754395 243.30884277 -300.05688477 242.85620117 C-303.40705109 240.68638746 -306.75163949 238.50848661 -310.08984375 236.3203125 C-311.37237491 235.4843429 -312.65492604 234.64840393 -313.9375 233.8125 C-314.81631836 233.23181763 -314.81631836 233.23181763 -315.71289062 232.6394043 C-318.61532946 230.61379431 -318.61532946 230.61379431 -322 230 C-321.99631283 229.37530886 -321.99262566 228.75061771 -321.98882675 228.10699654 C-321.90030656 212.87353364 -321.83420846 197.64015022 -321.79275131 182.40649605 C-321.7721676 175.03945781 -321.74412782 167.67259175 -321.69824219 160.30566406 C-321.65824532 153.88108762 -321.63253675 147.45663594 -321.62364602 141.03193843 C-321.61845284 137.63326809 -321.60633608 134.23495453 -321.57707977 130.83639908 C-321.54793681 127.03280959 -321.54404875 123.22995316 -321.54589844 119.42626953 C-321.53151733 118.31208145 -321.51713623 117.19789337 -321.50231934 116.04994202 C-321.54575096 107.76679167 -323.41645727 101.37214924 -327.625 94.25 C-339.38534022 83.10862506 -356.17127784 80.25335299 -369.24609375 91.1171875 Z M0 92 C-7.22502024 100.32739446 -8.29518788 108.27793651 -8.22705078 118.97216797 C-8.22734283 120.17273331 -8.22763489 121.37329865 -8.22793579 122.61024475 C-8.2267842 125.8887794 -8.21677885 129.16714158 -8.20278788 132.44564199 C-8.19025447 135.87693114 -8.18910796 139.30822396 -8.18673706 142.73953247 C-8.18052994 149.23111193 -8.16412957 155.72262372 -8.14403808 162.21417344 C-8.12165512 169.60714907 -8.11067963 177.000128 -8.10064721 184.39312911 C-8.07976263 199.59545705 -8.04460165 214.79772175 -8 230 C-8.77720398 230.30241104 -9.55440796 230.60482208 -10.35516357 230.91639709 C-13.03004702 232.01231041 -15.27388332 233.30968698 -17.703125 234.87109375 C-18.59193359 235.43957031 -19.48074219 236.00804687 -20.39648438 236.59375 C-21.33814453 237.2021875 -22.27980469 237.810625 -23.25 238.4375 C-24.23291016 239.06785156 -25.21582031 239.69820312 -26.22851562 240.34765625 C-29.15560059 242.22677253 -32.07865463 244.11197563 -35 246 C-36.15532227 246.74660889 -36.15532227 246.74660889 -37.33398438 247.50830078 C-40.05741427 249.26974495 -42.77999476 251.03247554 -45.50024414 252.79882812 C-52.47532438 257.32320449 -59.49393471 261.77887228 -66.515625 266.23046875 C-67.40121094 266.7925 -68.28679687 267.35453125 -69.19921875 267.93359375 C-70.03549805 268.46291504 -70.87177734 268.99223633 -71.73339844 269.53759766 C-73.64688719 270.77217302 -75.51031957 272.05182824 -77.37109375 273.36328125 C-79.92217034 274.95154439 -81.4213171 275.54629773 -84.375 275.75 C-85.57125 275.8325 -86.7675 275.915 -88 276 C-90.34839679 272.33063001 -90.52974131 269.28439904 -90 265 C-87.88942249 263.18201034 -86.31033926 262.16045979 -83.875 260.9375 C-82.49253672 260.1772633 -81.11247131 259.41265566 -79.734375 258.64453125 C-78.97705078 258.22896973 -78.21972656 257.8134082 -77.43945312 257.38525391 C-72.89434853 254.80429679 -68.52090863 251.9500958 -64.125 249.125 C-63.19163818 248.52824463 -62.25827637 247.93148926 -61.29663086 247.31665039 C-59.43049131 246.12319469 -57.56516461 244.92846696 -55.70068359 243.73242188 C-53.94671645 242.60729524 -52.19188224 241.48351872 -50.43603516 240.36132812 C-48.10116138 238.86902101 -45.76884924 237.3728057 -43.4375 235.875 C-42.75381348 235.43816895 -42.07012695 235.00133789 -41.36572266 234.55126953 C-35.82906716 230.97909832 -31.12274119 227.82241637 -27.75 222 C-27.24984375 221.154375 -26.7496875 220.30875 -26.234375 219.4375 C-23.2916003 213.62645123 -22.93310361 206.90124161 -24.6484375 200.62890625 C-28.41841616 191.33284777 -34.81734084 184.95482363 -44 181 C-52.04299393 178.61745274 -59.1524007 180.39099307 -66.3515625 184.265625 C-73.39950507 188.58603561 -79.97508521 193.60356214 -86.60473633 198.53027344 C-91.87520434 202.4468645 -97.18638089 206.2923492 -102.5625 210.0625 C-110.75427034 215.81259428 -118.88788789 221.63915337 -126.97851562 227.53076172 C-128.80936568 228.86144476 -130.64628949 230.18325146 -132.484375 231.50390625 C-146.11842991 241.45261383 -156.98084192 253.1376676 -161 270 C-161.20238281 270.80179688 -161.40476562 271.60359375 -161.61328125 272.4296875 C-165.22368872 288.98352854 -163.52676625 306.77247778 -154.76171875 321.4765625 C-151.57159993 326.04600098 -147.93191862 330.0613371 -144 334 C-143.36191406 334.6496875 -142.72382813 335.299375 -142.06640625 335.96875 C-132.4545548 345.08102497 -120.58782339 348.31147255 -108 351 C-107.11957031 351.19335938 -106.23914063 351.38671875 -105.33203125 351.5859375 C-88.79696273 354.52181231 -72.10403769 347.37045264 -58.75390625 338.11328125 C-54.89716901 335.36891 -51.09672511 332.5514334 -47.30566406 329.71728516 C-43.60581347 326.96159381 -39.86615951 324.26170293 -36.125 321.5625 C-35.38797852 321.02931152 -34.65095703 320.49612305 -33.89160156 319.94677734 C-27.46453052 315.30778249 -20.9704547 310.76756504 -14.46801758 306.23510742 C-8.12812727 301.80879843 -1.84864632 297.30473294 4.40869141 292.76269531 C8.81425916 289.56804884 13.24161434 286.40797262 17.6953125 283.28076172 C20.49532443 281.31435549 23.28846766 279.33837373 26.07958984 277.359375 C27.31997453 276.48136052 28.5623542 275.60615453 29.80712891 274.734375 C38.43971283 268.66916634 44.98789465 263.35528153 48 253 C48.30424939 249.96063839 48.30424939 249.96063839 48.27415466 246.76507568 C48.28911736 244.91906013 48.28911736 244.91906013 48.30438232 243.03575134 C48.30527798 241.68496717 48.30594162 240.33418283 48.30639648 238.98339844 C48.31402417 237.5504768 48.32245272 236.11755923 48.33161926 234.68464661 C48.35351267 230.80221489 48.36235633 226.91986191 48.36744571 223.03737545 C48.37109577 220.60802981 48.37733923 218.17870459 48.3844471 215.74936676 C48.40892489 207.26340331 48.42198961 198.77750084 48.42553711 190.29150391 C48.42916981 182.39909891 48.45905018 174.50708339 48.50094169 166.61479735 C48.53571059 159.82475392 48.5510867 153.03483914 48.55178314 146.24470735 C48.5525738 142.19554496 48.56121404 138.14677953 48.58978081 134.09770966 C48.61607485 130.28569165 48.61810447 126.4743965 48.60212517 122.66232872 C48.60031954 121.27003329 48.60692081 119.8776952 48.62294388 118.4854908 C48.73408577 108.19417446 46.69922415 101.7401754 41.1875 93.1875 C29.2870037 81.2870037 12.78468022 81.77659697 0 92 Z " fill="currentColor" transform="translate(421,138)"/>
<path d="M0 0 C0.99 0 1.98 0 3 0 C4.65063477 1.91748047 4.65063477 1.91748047 6.44140625 4.6171875 C7.43321899 6.10279175 7.43321899 6.10279175 8.44506836 7.6184082 C9.1438208 8.6930835 9.84257324 9.76775879 10.5625 10.875 C11.64059937 12.51698364 11.64059937 12.51698364 12.74047852 14.19213867 C34.1289787 47.0880988 55.39508272 87.7610619 47.41235352 128.21533203 C42.602837 150.19630442 28.07762503 167.34864827 10.0859375 180.05859375 C3.78458192 184.08291081 3.78458192 184.08291081 1.00390625 183.7890625 C-8.52742914 180.03598307 -15.84180335 173.09364129 -23 166 C-23.81855469 165.19433594 -24.63710937 164.38867188 -25.48046875 163.55859375 C-40.4949531 147.87220477 -46.53194368 128.03366787 -46.21484375 106.60546875 C-45.07517358 73.04536764 -27.11424338 40.24332148 -9 13 C-8.11580643 11.64328064 -7.23168835 10.28651208 -6.34765625 8.9296875 C-1.94637653 2.30176588 -1.94637653 2.30176588 0 0 Z " fill="currentColor" transform="translate(254,0)"/>
<path d="M0 0 C9.32230886 -0.16737871 18.47233504 0.28317887 27.75 1.1875 C28.75179794 1.2849501 28.75179794 1.2849501 29.77383423 1.3843689 C59.42557475 4.32524437 91.23122035 10.4603857 116 28 C116.77730469 28.53109375 117.55460937 29.0621875 118.35546875 29.609375 C135.85391149 42.25885168 144.8255901 62.63156989 148.40234375 83.328125 C149.18367398 89.10782809 149.1675104 94.93099104 149.0546875 100.75390625 C148.94734683 103.84178322 148.94734683 103.84178322 149.1953125 106.27734375 C149.25 108.0625 149.25 108.0625 148 111 C140.28271994 115.87195246 130.85836832 117.44188601 122 119 C121.27167969 119.13277344 120.54335937 119.26554687 119.79296875 119.40234375 C99.85878492 122.46591305 79.49267307 117.85837639 62.75 106.75 C30.67457988 82.59909544 10.49993199 42.03863307 0 4 C0 2.68 0 1.36 0 0 Z " fill="currentColor" transform="translate(90,138)"/>
</svg>
