<?xml version="1.0" encoding="UTF-8"?>
<svg version="1.1" xmlns="http://www.w3.org/2000/svg" width="500" height="500">
<path d="M0 0 C165 0 330 0 500 0 C500 165 500 330 500 500 C335 500 170 500 0 500 C0 335 0 170 0 0 Z " fill="#0000" transform="translate(0,0)"/>
<path d="M0 0 C1.02132058 1.31707329 2.02525239 2.64809583 3 4 C2.25355225 4.73978592 1.50710449 5.47957184 0.73803711 6.24177551 C-6.33121231 13.24993571 -13.39231787 20.2662125 -20.44573975 27.29030323 C-24.07132549 30.90030214 -27.69961861 34.50748576 -31.33447266 38.1081543 C-34.84898337 41.58982108 -38.35589211 45.07898673 -41.85787964 48.57324791 C-43.18832045 49.89818984 -44.52137758 51.22051048 -45.85720825 52.54001808 C-58.42944332 64.96484563 -70.23419685 76.73855744 -70.5 95.4375 C-70.34702157 107.11399654 -66.94081956 117.24889273 -59 126 C-48.90341215 135.07593744 -38.4998829 138.98982749 -24.99609375 138.375 C-7.21790876 137.01039957 3.373171 125.99079262 15.10546875 113.90234375 C17.54441212 111.4099707 20.03187663 109.07072708 22.69140625 106.81640625 C26.36346993 103.6625936 29.73716621 100.27882756 33.109375 96.8125 C33.6482283 96.26102798 34.1870816 95.70955597 34.74226379 95.14137268 C36.9877652 92.84166387 39.2313668 90.54059535 41.45654297 88.22119141 C43.10039501 86.51107409 44.75944963 84.8170405 46.421875 83.125 C46.92297791 82.59495361 47.42408081 82.06490723 47.94036865 81.51879883 C49.37792969 80.0703125 49.37792969 80.0703125 52 78 C56.34619566 78.07693877 58.90362498 81.51205141 61.74316406 84.41845703 C62.30635849 84.98281967 62.86955292 85.54718231 63.44981384 86.12864685 C65.31214006 87.99816578 67.16371682 89.87797799 69.015625 91.7578125 C70.31280677 93.06313513 71.61073069 94.36772061 72.90936279 95.67160034 C76.3322351 99.11160692 79.74645766 102.56006653 83.1585083 106.01080322 C88.60304625 111.51444667 94.06009122 117.00567882 99.51799774 122.49605942 C101.41506197 124.40697162 103.30818592 126.32171781 105.20074463 128.23709106 C110.25467002 133.34008664 115.29281204 138.34575094 120.76470947 143.00317383 C126.76521528 148.36353611 132.37659658 154.16583886 138.078125 159.83984375 C138.79394493 160.55158815 139.50976486 161.26333256 140.24727631 161.99664497 C144.02847838 165.75709977 147.80647604 169.52074134 151.58203125 173.28686523 C155.46943377 177.16316438 159.36838192 181.02763442 163.26997757 184.88963985 C166.28271882 187.87620677 169.28651194 190.87165383 172.28798676 193.86953926 C173.72147944 195.29817642 175.15833506 196.72344783 176.59867096 198.14518547 C178.61344945 200.13553279 180.61513602 202.1382309 182.61425781 204.14428711 C183.20445709 204.72167633 183.79465637 205.29906555 184.40274048 205.89395142 C189.16998775 210.72146559 192.98486581 216.0583867 193.5 223 C193.13640967 228.61912333 191.15533313 232.97398686 187.046875 236.8359375 C182.61724738 240.13492591 178.96169161 241.66621862 173.43359375 241.6015625 C165.6509722 239.67776841 160.59426587 235.16045547 155.15039062 229.58862305 C154.41104782 228.84825806 153.67170502 228.10789307 152.90995789 227.34509277 C150.48257286 224.90986198 148.06956122 222.46089037 145.65625 220.01171875 C143.96144249 218.30689855 142.26566669 216.60304046 140.56896973 214.90010071 C136.11147415 210.42171105 131.66568199 205.93188729 127.22271729 201.43908691 C120.11546552 194.25647524 112.98951759 187.09240016 105.86552429 179.92640114 C103.38754028 177.43082001 100.91388977 174.93101119 98.44104004 172.43034363 C96.91062001 170.8866929 95.38014593 169.34309575 93.84960938 167.79956055 C93.17093307 167.11100479 92.49225677 166.42244904 91.79301453 165.71302795 C83.71184728 156.50255052 83.71184728 156.50255052 73.1875 151.8125 C69.95261489 152.00278736 67.83966966 152.45846504 65 154 C63.60143826 158.19568521 63.1304505 162.10880781 65.02111816 166.22084045 C67.90428688 170.26998867 71.37600795 173.61079178 74.91210938 177.09155273 C75.71727493 177.89219147 76.52244049 178.6928302 77.352005 179.51773071 C79.09807608 181.25285633 80.84641627 182.98570084 82.59675598 184.71652031 C85.36691032 187.45650181 88.13032588 190.20311603 90.89196777 192.95167542 C97.75123892 199.77692797 104.61979909 206.59281188 111.4932251 213.40380859 C117.30265137 219.16050426 123.10620774 224.92297111 128.90107727 230.69432259 C130.73221043 232.5148873 132.56625271 234.33253084 134.40324402 236.14718437 C136.97161772 238.68437331 139.53066306 241.23063707 142.08789062 243.77905273 C142.84850296 244.52573715 143.6091153 245.27242157 144.39277649 246.04173279 C149.09904053 250.75631293 153.42439706 255.32561721 153.4375 262.375 C153.20694913 268.58939382 150.91039148 273.18279835 146.4375 277.4375 C141.25728239 280.75815231 135.96054385 280.44661136 130 280 C124.92687745 278.40843214 121.88315053 275.12231615 118.3203125 271.328125 C116.37309066 269.37434686 114.39498639 267.59329224 112.30464172 265.79904175 C108.30632675 262.31335515 104.53434568 258.65720208 100.80541992 254.88720703 C100.13607422 254.21479477 99.46672852 253.54238251 98.77709961 252.84959412 C97.33940817 251.40480567 95.90284988 249.95888889 94.46733665 248.51193619 C92.19611032 246.22318902 89.92124538 243.93811608 87.64533997 241.65402222 C81.18056328 235.1648921 74.72157925 228.67001809 68.2668457 222.17089844 C64.30667711 218.18400485 60.34169744 214.20194929 56.37368202 210.22286606 C54.86427314 208.70724157 53.35676538 207.18972132 51.85118675 205.6702919 C49.75449733 203.55446408 47.65179164 201.4447963 45.54760742 199.33642578 C44.92576065 198.70581741 44.30391388 198.07520905 43.66322327 197.42549133 C39.96747911 193.73815678 37.86361607 192.20706845 32.625 191.625 C28.91818151 191.73172166 28.91818151 191.73172166 26 193.9375 C23.66777985 197.50871211 23.13134825 199.24377674 23.83203125 203.40625 C26.27268005 208.82628612 31.22414561 212.65958901 35.54199219 216.61914062 C37.42425481 218.40180596 39.09130448 220.32206537 40.75 222.3125 C42.82081753 224.74947077 44.93225327 226.87379562 47.38378906 228.92382812 C53.5797381 234.2838242 59.3103067 240.12524538 65.109375 245.90625 C65.72590187 246.51994949 66.34242874 247.13364899 66.97763824 247.76594543 C70.23339013 251.00680059 73.486329 254.25044705 76.73681641 257.49658203 C80.08112562 260.83538654 83.43463039 264.16479386 86.79034042 267.49213409 C89.38454166 270.06767373 91.97197382 272.64993386 94.55762482 275.23405457 C95.79104286 276.46445911 97.02694591 277.69237805 98.26543427 278.91767883 C99.99763848 280.63273091 101.7200231 282.35710872 103.44042969 284.08398438 C103.94647232 284.58081223 104.45251495 285.07764008 104.97389221 285.58952332 C108.84609495 289.50726539 112.36170993 293.90404185 113.49609375 299.40625 C113.33183613 305.27572212 112.59018071 310.28735212 108.34765625 314.73046875 C103.92454051 318.6673223 100.69244595 320.15469368 94.6875 320.3125 C93.76324219 320.34988281 92.83898437 320.38726562 91.88671875 320.42578125 C84.26955997 319.3022761 78.85286969 312.09509229 73.7265625 306.88671875 C72.84398773 305.99894241 71.96141296 305.11116608 71.05209351 304.19648743 C68.71393094 301.84356592 66.37991975 299.48669288 64.04827881 297.12731934 C60.77637107 293.81738737 57.49934479 290.5125462 54.21932983 287.21064758 C52.477908 285.45710101 50.7391648 283.7008888 49.00357056 281.9415741 C44.68441408 277.58719633 40.29838324 273.39492307 35.6343689 269.41047668 C33.01704913 267.15170358 30.64899496 264.67217335 28.25 262.1875 C26.40832516 260.39698279 24.54022451 258.74772516 22.5859375 257.0859375 C16.27561344 251.60645815 10.49676248 245.56468152 4.625 239.625 C2.28672085 237.26015669 -0.05484369 234.89863758 -2.3984375 232.5390625 C-2.93173676 231.9974649 -3.46503601 231.45586731 -4.01449585 230.89785767 C-7.97577267 226.90894335 -7.97577267 226.90894335 -13.3125 225.625 C-17.08956386 225.70554308 -17.08956386 225.70554308 -19.9375 228.0625 C-22.19317357 230.87982603 -22.19317357 230.87982603 -22.75 234.3125 C-20.76815562 244.0565682 -8.42995057 252.64810197 -1.5 259.5 C11.81564848 272.66567335 11.81564848 272.66567335 15.44140625 276.93359375 C20.44070836 282.81138235 26.01751251 288.16570171 31.47875977 293.60913086 C33.43295624 295.5579687 35.38175147 297.51209272 37.33007812 299.46679688 C42.85229983 304.99184005 48.35237538 310.47871374 54.30688477 315.54272461 C57.24334032 318.07015117 59.99822271 320.77474587 62.75 323.5 C63.30042969 324.02980469 63.85085938 324.55960937 64.41796875 325.10546875 C68.66274401 329.30952674 72.3131516 333.60616087 73.53125 339.625 C73.44364829 346.28272961 72.38987252 350.67066092 67.46875 355.50390625 C63.31440016 359.07786898 60.78458695 360.21152991 55.375 360.4375 C54.37210937 360.49808594 53.36921875 360.55867188 52.3359375 360.62109375 C47.48450216 359.71784057 44.71644009 357.12747108 41 354 C40.20255371 353.3716626 39.40510742 352.7433252 38.58349609 352.09594727 C23.27352875 339.77057844 23.27352875 339.77057844 21.21582031 332.0625 C20.68310326 326.15453327 21.32695686 320.36088253 21.89111328 314.47558594 C22.24100011 306.5207598 17.60675961 300.3974161 12.75 294.5625 C4.2838485 285.90204338 -4.43671346 283.87389229 -16 282 C-16.29132813 280.80503906 -16.58265625 279.61007812 -16.8828125 278.37890625 C-19.92912235 266.37033766 -23.2519782 256.22444352 -34 249 C-40.82914828 245.05546249 -48.34007707 243.56276635 -56 242 C-56.32871094 240.44152344 -56.32871094 240.44152344 -56.6640625 238.8515625 C-59.38160328 226.62996578 -63.12074528 216.27222909 -74 209 C-80.64013962 205.47553321 -87.61226625 204.06742921 -95 203 C-95.27972656 201.90042969 -95.55945313 200.80085937 -95.84765625 199.66796875 C-99.03411439 187.69025173 -102.86392467 176.8872582 -113.4296875 169.4375 C-122.80000783 164.19695611 -133.68190287 162.24653353 -144.2421875 164.47265625 C-146.28711534 165.15840514 -148.09337429 165.99150536 -150 167 C-150.80050781 167.41378906 -151.60101563 167.82757813 -152.42578125 168.25390625 C-157.75176843 171.21997195 -161.89289176 174.5801432 -166.07421875 178.99609375 C-168.5453275 181.56745031 -171.20153536 183.86645588 -173.90234375 186.19140625 C-176.28972899 188.24980358 -178.64583063 190.34122086 -181 192.4375 C-181.763125 193.11683594 -182.52625 193.79617188 -183.3125 194.49609375 C-183.869375 194.99238281 -184.42625 195.48867188 -185 196 C-194.57562281 191.86892379 -200.14117677 180.6734463 -205 172 C-205.34063477 171.39800781 -205.68126953 170.79601562 -206.03222656 170.17578125 C-216.69725215 151.03291312 -221.43664974 130.54184482 -221.375 108.6875 C-221.37478851 107.99189972 -221.37457703 107.29629944 -221.37435913 106.57962036 C-221.26722594 71.04135686 -209.78231766 37.883754 -185 12 C-184.27683594 11.20207031 -183.55367187 10.40414062 -182.80859375 9.58203125 C-136.39080376 -39.82032053 -51.17087473 -43.83720669 0 0 Z " fill="#F63B3B" transform="translate(233,88)"/>
<path d="M0 0 C0.886875 0.76828125 1.77375 1.5365625 2.6875 2.328125 C4.1725 3.57335937 4.1725 3.57335937 5.6875 4.84375 C31.36004744 26.92770578 46.81070545 60.28635588 51.6875 93.328125 C53.85608404 133.24321422 43.14439779 167.38543399 17.6875 198.328125 C17.17493652 198.95493164 16.66237305 199.58173828 16.13427734 200.22753906 C13.35150225 203.62276059 10.53761926 206.98904623 7.6875 210.328125 C3.35360201 208.66205229 0.55454965 205.45283893 -2.625 202.203125 C-3.16833984 201.65914062 -3.71167969 201.11515625 -4.27148438 200.5546875 C-7.02820947 197.76867017 -9.66958583 194.93024742 -12.19996643 191.93725586 C-17.66273708 185.67653872 -23.61882433 179.89075992 -29.49975586 174.02734375 C-30.8310357 172.69634638 -32.1620946 171.36512799 -33.49295044 170.03370667 C-37.08729361 166.43907784 -40.68470079 162.84752987 -44.28268504 159.25654602 C-48.04943142 155.49607183 -51.81332601 151.73274544 -55.57752991 147.96972656 C-62.69744239 140.85291603 -69.81989905 133.73865739 -76.94328362 126.62532234 C-85.05651893 118.52328352 -93.16689818 110.41838826 -101.27704418 102.31325722 C-117.95236364 85.64837639 -134.63124904 68.98706835 -151.3125 52.328125 C-154.27411477 53.74971803 -156.35511716 55.12837055 -158.66894531 57.47338867 C-159.30350647 58.11132858 -159.93806763 58.74926849 -160.59185791 59.40653992 C-161.60599762 60.44086906 -161.60599762 60.44086906 -162.640625 61.49609375 C-163.3484613 62.20913162 -164.05629761 62.92216949 -164.7855835 63.65681458 C-167.04935772 65.93838694 -169.30635671 68.22650842 -171.5625 70.515625 C-173.80516506 72.78606375 -176.04932159 75.05497429 -178.29656982 77.32087708 C-179.69302401 78.72941531 -181.08679967 80.14061626 -182.47735596 81.55497742 C-186.3432647 85.45989898 -190.32936783 89.13975113 -194.49041748 92.72767639 C-196.91139782 94.85417428 -199.16324834 97.11733833 -201.40625 99.4296875 C-202.29183594 100.33203125 -203.17742187 101.234375 -204.08984375 102.1640625 C-205.90885703 104.02744195 -207.72395233 105.89465395 -209.53515625 107.765625 C-217.11474769 115.46657816 -223.42946218 121.33844254 -234.5625 121.640625 C-241.16197178 121.54409017 -245.48429186 120.00542085 -250.2890625 115.45703125 C-255.1479429 110.16824991 -257.59158914 105.83362365 -257.6875 98.515625 C-257.73003906 97.05189453 -257.73003906 97.05189453 -257.7734375 95.55859375 C-256.71742692 88.15757043 -252.5014723 82.92855951 -247.27807617 77.85546875 C-246.38698402 76.96590988 -246.38698402 76.96590988 -245.47789001 76.05838013 C-243.52962037 74.11793574 -241.56769416 72.19194668 -239.60546875 70.265625 C-238.23695023 68.9071245 -236.86939674 67.54765124 -235.50276184 66.18725586 C-231.91212562 62.61748666 -228.31008747 59.05945708 -224.70501709 55.50427246 C-218.94366146 49.81834854 -213.20084973 44.11368166 -207.45617104 38.41091919 C-205.45918949 36.43148357 -203.45796475 34.45642605 -201.45585632 32.48217773 C-195.99050351 27.0809226 -190.59741776 21.70407983 -185.62080383 15.84088135 C-184.00190362 13.96899081 -182.26184681 12.32594386 -180.375 10.7265625 C-179.7046875 10.15776367 -179.034375 9.58896484 -178.34375 9.00292969 C-157.66676074 -8.04564559 -136.61329616 -19.69116238 -110.3125 -25.671875 C-108.69988281 -26.04505859 -108.69988281 -26.04505859 -107.0546875 -26.42578125 C-72.05584812 -33.09889329 -27.78238304 -22.57318622 0 0 Z " fill="#F63B3B" transform="translate(439.3125,85.671875)"/>
<path d="M0 0 C5.22128612 3.51869282 10.03807452 8.65630428 11.28125 15.015625 C11.57537066 21.82942029 9.36077819 25.01653437 4.875 29.9375 C3.96828483 30.97355142 3.06207353 32.01004393 2.15625 33.046875 C-14.08231444 51.35884408 -14.08231444 51.35884408 -22.61328125 52.17578125 C-28.67156353 52.33498922 -32.42456464 52.1793563 -37.125 47.9375 C-40.76477066 43.89331038 -43.39310489 40.22771649 -43.5625 34.6875 C-43.60246094 33.98109375 -43.64242187 33.2746875 -43.68359375 32.546875 C-41.88451414 24.14278285 -34.67004846 17.99490602 -28.8125 12.1875 C-27.99587891 11.35089844 -27.17925781 10.51429688 -26.33789062 9.65234375 C-18.66618866 1.98675469 -11.1926288 -3.80549379 0 0 Z " fill="#F63C3C" transform="translate(106.125,272.0625)"/>
<path d="M0 0 C5.12662731 2.82349963 8.63234908 6.67862613 10.765625 12.14453125 C12.04746449 18.6331347 10.30686126 23.62777399 6.765625 29.14453125 C4.05549574 32.4040445 1.10354354 35.36627586 -1.921875 38.33203125 C-2.68693359 39.11255859 -3.45199219 39.89308594 -4.24023438 40.69726562 C-10.31773522 46.73380606 -16.46617417 52.11659135 -25.296875 52.76953125 C-30.59268 52.46479597 -34.31784853 50.68203903 -38.234375 47.14453125 C-42.30636958 42.15633788 -43.11826502 37.60219362 -42.85546875 31.18359375 C-41.69639314 25.51214203 -38.20434215 22.16798598 -34.234375 18.14453125 C-33.19702339 17.045113 -32.16061601 15.94480329 -31.125 14.84375 C-12.41163476 -4.75200702 -12.41163476 -4.75200702 0 0 Z " fill="#F63D3D" transform="translate(225.234375,390.85546875)"/>
<path d="M0 0 C4.05523038 2.85709413 7.51585617 6.46921234 9.75 10.9375 C10.0234375 13.2578125 10.0234375 13.2578125 10.125 16.0625 C10.17398438 16.97257812 10.22296875 17.88265625 10.2734375 18.8203125 C8.84587289 27.32177936 1.80827746 33.37004917 -4.0625 39.1875 C-5.21588867 40.37085938 -5.21588867 40.37085938 -6.39257812 41.578125 C-11.59361828 46.77477609 -16.37877186 50.81989228 -23.71875 52.50390625 C-29.66973054 52.49246206 -33.74345966 50.85268437 -38.25 46.9375 C-41.90313364 42.25399533 -43.75111512 38.25861456 -43.65234375 32.22875977 C-42.15997255 23.73003179 -34.73482897 16.82250165 -28.8125 11.0625 C-28.08740234 10.3303125 -27.36230469 9.598125 -26.61523438 8.84375 C-18.61911911 0.94103051 -11.40942069 -3.73000292 0 0 Z " fill="#F63C3C" transform="translate(146.25,312.0625)"/>
<path d="M0 0 C5.10914289 2.85228466 7.94339884 6.55970551 9.578125 12.16015625 C10.63595289 17.38434134 9.9913235 21.0873589 7.140625 25.59765625 C-0.35918388 35.6969305 -9.67677998 47.0752944 -21.421875 52.16015625 C-27.75322431 52.87498601 -32.14581321 51.77132743 -37.421875 48.16015625 C-42.38446783 43.06696887 -43.62454644 38.4452843 -43.78515625 31.5390625 C-42.90105712 25.74963915 -39.48613189 21.84749142 -35.45703125 17.83203125 C-34.9824498 17.35695129 -34.50786835 16.88187134 -34.01890564 16.39239502 C-33.02148843 15.39730317 -32.02041363 14.40586512 -31.01586914 13.41796875 C-29.48333794 11.90913523 -27.96467289 10.38730833 -26.44726562 8.86328125 C-18.46140188 0.92307068 -11.76802863 -4.08084864 0 0 Z " fill="#F63C3C" transform="translate(186.421875,351.83984375)"/>
</svg>
